# Blender v2.79 (sub 0) OBJ File: ''
# www.blender.org
mtllib home.mtl
o Cube.001_Cube.002
v -7.705129 -0.999999 -6.551063
v -0.630717 -1.000000 0.523352
v -7.705129 -1.000000 0.523350
v -0.630715 1.000001 -6.551062
v -7.446830 1.000001 -6.292768
v -0.889011 1.000001 -6.292765
v -7.705131 1.000000 0.523349
v -7.705127 1.000001 -6.551064
v -0.630715 -0.999999 -6.551062
v -0.630716 1.000000 0.523351
v -7.446830 1.000001 -6.292768
v -0.889011 1.000001 -6.292765
v -0.889013 1.000000 0.265054
v -7.446834 1.000000 0.265052
v -0.889013 -0.792029 0.265054
v -0.889013 1.000000 0.265054
v -7.446834 1.000000 0.265052
v -7.446830 -0.792028 -6.292768
v -7.446834 -0.792029 0.265052
v -0.889011 -0.792028 -6.292765
vn 0.0000 -1.0000 -0.0000
vn 0.0000 1.0000 -0.0000
vn -1.0000 -0.0000 -0.0000
vn 0.0000 -0.0000 -1.0000
vn 1.0000 -0.0000 0.0000
vn -0.0000 0.0000 1.0000
vn 0.0000 0.0000 0.0000
usemtl Material.001
s 1
f 1//1 2//1 3//1
f 4//2 5//2 6//2
f 7//3 1//3 3//3
f 8//4 9//4 1//4
f 9//5 10//5 2//5
f 3//6 10//6 7//6
f 6//7 11//7 12//7
f 7//2 5//2 8//2
f 10//2 6//2 13//2
f 10//2 14//2 7//2
f 12//3 15//3 16//3
f 5//7 17//7 11//7
f 13//7 12//7 16//7
f 14//7 16//7 17//7
f 15//2 18//2 19//2
f 16//4 19//4 17//4
f 11//7 20//6 12//7
f 17//5 18//5 11//5
f 1//1 9//1 2//1
f 4//2 8//2 5//2
f 7//3 8//3 1//3
f 8//4 4//4 9//4
f 9//5 4//5 10//5
f 3//6 2//6 10//6
f 6//7 5//7 11//7
f 7//2 14//2 5//2
f 10//2 4//2 6//2
f 10//2 13//2 14//2
f 12//3 20//3 15//3
f 5//7 14//7 17//7
f 13//7 6//7 12//7
f 14//7 13//7 16//7
f 15//2 20//2 18//2
f 16//4 15//4 19//4
f 11//7 18//6 20//6
f 17//5 19//5 18//5
o Cube.003_Cube.004
v 1.052652 -0.021307 -1.034654
v 1.052652 -0.763909 -1.777256
v 1.052652 -0.763909 -1.034654
v 1.052652 -0.021307 -1.777256
v 1.795254 -0.763909 -1.777256
v 1.795254 -0.021307 -1.777256
v 1.795254 -0.763909 -1.034654
v 1.795254 -0.021307 -1.034654
vn -1.0000 0.0000 0.0000
vn 0.0000 0.0000 -1.0000
vn 1.0000 -0.0000 0.0000
vn 0.0000 -0.0000 1.0000
vn 0.0000 -1.0000 -0.0000
vn 0.0000 1.0000 0.0000
usemtl None
s 1
f 21//8 22//8 23//8
f 24//9 25//9 22//9
f 26//10 27//10 25//10
f 28//11 23//11 27//11
f 25//12 23//12 22//12
f 24//13 28//13 26//13
f 21//8 24//8 22//8
f 24//9 26//9 25//9
f 26//10 28//10 27//10
f 28//11 21//11 23//11
f 25//12 27//12 23//12
f 24//13 21//13 28//13
o Cube.005_Cube.006
v -7.414509 0.537100 -4.946487
v -7.414509 -0.788056 -3.096733
v -7.414509 0.537099 -3.096733
v -6.968145 0.537100 -4.946487
v -7.414509 -0.788055 -4.946487
v -6.968145 0.537099 -3.096733
v -6.968145 -0.788055 -4.946487
v -6.968145 -0.788056 -3.096733
vn -1.0000 -0.0000 0.0000
vn 0.0000 0.0000 -1.0000
vn 1.0000 0.0000 0.0000
vn 0.0000 -0.0000 1.0000
vn 0.0000 1.0000 0.0000
vn 0.0000 -1.0000 -0.0000
usemtl None
s 1
f 29//14 30//14 31//14
f 32//15 33//15 29//15
f 34//16 35//16 32//16
f 31//17 36//17 34//17
f 31//18 32//18 29//18
f 36//19 33//19 35//19
f 29//14 33//14 30//14
f 32//15 35//15 33//15
f 34//16 36//16 35//16
f 31//17 30//17 36//17
f 31//18 34//18 32//18
f 36//19 30//19 33//19
o Cube.001
v -3.537207 -0.999999 -3.491562
v 3.537205 -1.000001 3.582853
v -3.537207 -1.000001 3.582850
v -3.537204 1.000001 -3.491564
v 3.278911 1.000000 -3.233264
v 3.537208 1.000001 -3.491560
v -3.537208 0.999999 3.582850
v 3.537207 -0.999999 -3.491561
v 3.537206 0.999999 3.582852
v -3.278908 1.000000 -3.233267
v 3.278911 1.000000 -3.233264
v -3.278908 1.000000 -3.233267
v 3.278909 0.999999 3.324555
v -3.278911 0.999999 3.324553
v 3.278909 -0.792030 3.324554
v 3.278909 0.999999 3.324555
v -3.278911 0.999999 3.324553
v -3.278908 -0.792028 -3.233268
v -3.278911 -0.792030 3.324553
v 3.278911 -0.792028 -3.233264
vn 0.0000 -1.0000 -0.0000
vn 0.0000 1.0000 0.0000
vn -1.0000 -0.0000 -0.0000
vn 0.0000 -0.0000 -1.0000
vn 1.0000 -0.0000 0.0000
vn -0.0000 0.0000 1.0000
vn 0.0000 0.0000 0.0000
usemtl Material.001
s 1
f 37//20 38//20 39//20
f 40//21 41//21 42//21
f 43//22 37//22 39//22
f 40//23 44//23 37//23
f 44//24 45//24 38//24
f 39//25 45//25 43//25
f 41//26 46//26 47//26
f 43//21 48//21 40//21
f 45//21 41//21 49//21
f 45//21 50//21 43//21
f 47//22 51//22 52//22
f 48//26 53//26 46//26
f 49//26 47//26 52//26
f 50//26 52//26 53//26
f 51//21 54//21 55//21
f 52//23 55//23 53//23
f 46//26 56//25 47//26
f 53//24 54//24 46//24
f 37//20 44//20 38//20
f 40//21 48//21 41//21
f 43//22 40//22 37//22
f 40//23 42//23 44//23
f 44//24 42//24 45//24
f 39//25 38//25 45//25
f 41//26 48//26 46//26
f 43//21 50//21 48//21
f 45//21 42//21 41//21
f 45//21 49//21 50//21
f 47//22 56//22 51//22
f 48//26 50//26 53//26
f 49//26 41//26 47//26
f 50//26 49//26 52//26
f 51//21 56//21 54//21
f 52//23 51//23 55//23
f 46//26 54//25 56//25
f 53//24 55//24 54//24
o Cube.006_Cube.007
v 2.340176 0.537100 -6.249235
v 0.490421 -0.788055 -6.249234
v 0.490421 0.537100 -6.249234
v 2.340176 0.537100 -5.802872
v 2.340176 -0.788055 -6.249235
v 0.490421 0.537100 -5.802871
v 2.340176 -0.788055 -5.802872
v 0.490421 -0.788055 -5.802871
vn -0.0000 0.0000 -1.0000
vn 1.0000 0.0000 0.0000
vn 0.0000 0.0000 1.0000
vn -1.0000 0.0000 0.0000
vn 0.0000 1.0000 0.0000
vn -0.0000 -1.0000 -0.0000
usemtl None
s 1
f 57//27 58//27 59//27
f 60//28 61//28 57//28
f 62//29 63//29 60//29
f 59//30 64//30 62//30
f 59//31 60//31 57//31
f 63//32 58//32 61//32
f 57//27 61//27 58//27
f 60//28 63//28 61//28
f 62//29 64//29 63//29
f 59//30 58//30 64//30
f 59//31 62//31 60//31
f 63//32 64//32 58//32
o Cube.002_Cube.003
v -3.549611 -0.999999 -6.551063
v 3.524801 -1.000000 0.523352
v -3.549611 -1.000000 0.523350
v 3.524803 1.000001 -6.551062
v -3.291312 1.000001 -6.292768
v 3.266507 1.000001 -6.292765
v -3.549613 1.000000 0.523349
v -3.549609 1.000001 -6.551064
v 3.524803 -0.999999 -6.551062
v 3.524802 1.000000 0.523351
v -3.291312 1.000001 -6.292768
v 3.266507 1.000001 -6.292765
v 3.266505 1.000000 0.265054
v -3.291316 1.000000 0.265052
v 3.266505 -0.792029 0.265054
v 3.266505 1.000000 0.265054
v -3.291316 1.000000 0.265052
v -3.291312 -0.792028 -6.292768
v -3.291316 -0.792029 0.265052
v 3.266507 -0.792028 -6.292765
vn 0.0000 -1.0000 -0.0000
vn 0.0000 1.0000 -0.0000
vn -1.0000 -0.0000 -0.0000
vn 0.0000 -0.0000 -1.0000
vn 1.0000 -0.0000 0.0000
vn -0.0000 0.0000 1.0000
vn 0.0000 0.0000 0.0000
usemtl Material.001
s 1
f 65//33 66//33 67//33
f 68//34 69//34 70//34
f 71//35 65//35 67//35
f 72//36 73//36 65//36
f 73//37 74//37 66//37
f 67//38 74//38 71//38
f 70//39 75//39 76//39
f 71//34 69//34 72//34
f 74//34 70//34 77//34
f 74//34 78//34 71//34
f 76//35 79//35 80//35
f 69//39 81//39 75//39
f 77//39 76//39 80//39
f 78//39 80//39 81//39
f 79//34 82//34 83//34
f 80//36 83//36 81//36
f 75//39 84//38 76//39
f 81//37 82//37 75//37
f 65//33 73//33 66//33
f 68//34 72//34 69//34
f 71//35 72//35 65//35
f 72//36 68//36 73//36
f 73//37 68//37 74//37
f 67//38 66//38 74//38
f 70//39 69//39 75//39
f 71//34 78//34 69//34
f 74//34 68//34 70//34
f 74//34 77//34 78//34
f 76//35 84//35 79//35
f 69//39 78//39 81//39
f 77//39 70//39 76//39
f 78//39 77//39 80//39
f 79//34 84//34 82//34
f 80//36 79//36 83//36
f 75//39 82//38 84//38
f 81//37 83//37 82//37
o Cube.004_Cube.005
v -7.379672 -0.021307 -0.481078
v -7.379672 -0.763909 -2.330832
v -7.379672 -0.763909 -0.481078
v -7.379672 -0.021307 -2.330832
v -4.748326 -0.763909 -2.330832
v -4.748326 -0.021307 -2.330832
v -4.748326 -0.763909 -0.481078
v -4.748326 -0.021307 -0.481078
vn -1.0000 0.0000 0.0000
vn 0.0000 0.0000 -1.0000
vn 1.0000 -0.0000 0.0000
vn 0.0000 -0.0000 1.0000
vn 0.0000 -1.0000 -0.0000
vn 0.0000 1.0000 0.0000
usemtl None
s 1
f 85//40 86//40 87//40
f 88//41 89//41 86//41
f 90//42 91//42 89//42
f 92//43 87//43 91//43
f 89//44 87//44 86//44
f 88//45 92//45 90//45
f 85//40 88//40 86//40
f 88//41 90//41 89//41
f 90//42 92//42 91//42
f 92//43 85//43 87//43
f 89//44 91//44 87//44
f 88//45 85//45 92//45
o Cube.007_Cube.008
v 2.340176 0.537100 -3.139573
v 0.490421 -0.788055 -3.139573
v 0.490421 0.537100 -3.139573
v 2.340176 0.537099 -2.693210
v 2.340176 -0.788055 -3.139573
v 0.490421 0.537099 -2.693210
v 2.340176 -0.788056 -2.693210
v 0.490421 -0.788056 -2.693210
vn 0.0000 0.0000 -1.0000
vn 1.0000 0.0000 0.0000
vn 0.0000 -0.0000 1.0000
vn -1.0000 0.0000 0.0000
vn 0.0000 1.0000 0.0000
vn 0.0000 -1.0000 -0.0000
usemtl None
s 1
f 93//46 94//46 95//46
f 96//47 97//47 93//47
f 98//48 99//48 96//48
f 95//49 100//49 98//49
f 95//50 96//50 93//50
f 100//51 97//51 99//51
f 93//46 97//46 94//46
f 96//47 99//47 97//47
f 98//48 100//48 99//48
f 95//49 94//49 100//49
f 95//50 98//50 96//50
f 100//51 94//51 97//51
o Cube.009_Cube.010
v -3.199201 0.357732 3.219885
v -3.199201 -0.669455 2.192698
v -3.199201 -0.669456 3.219885
v -3.199201 0.357733 2.192698
v -2.172013 -0.669455 2.192698
v -2.172013 0.357733 2.192698
v -2.172013 -0.669456 3.219885
v -2.172013 0.357732 3.219885
vn -1.0000 0.0000 0.0000
vn 0.0000 0.0000 -1.0000
vn 1.0000 0.0000 0.0000
vn 0.0000 0.0000 1.0000
vn 0.0000 -1.0000 -0.0000
vn 0.0000 1.0000 0.0000
usemtl None
s 1
f 101//52 102//52 103//52
f 104//53 105//53 102//53
f 106//54 107//54 105//54
f 108//55 103//55 107//55
f 105//56 103//56 102//56
f 104//57 108//57 106//57
f 101//52 104//52 102//52
f 104//53 106//53 105//53
f 106//54 108//54 107//54
f 108//55 101//55 103//55
f 105//56 107//56 103//56
f 104//57 101//57 108//57
o Cube.008_Cube.009
v 2.340176 0.537099 0.547659
v 0.490421 -0.788056 0.547660
v 0.490421 0.537099 0.547660
v 2.340176 0.537099 0.994022
v 2.340176 -0.788056 0.547659
v 0.490421 0.537099 0.994023
v 2.340176 -0.788056 0.994022
v 0.490421 -0.788056 0.994023
vn -0.0000 0.0000 -1.0000
vn 1.0000 0.0000 0.0000
vn 0.0000 -0.0000 1.0000
vn -1.0000 0.0000 0.0000
vn 0.0000 1.0000 0.0000
vn -0.0000 -1.0000 -0.0000
usemtl None
s 1
f 109//58 110//58 111//58
f 112//59 113//59 109//59
f 114//60 115//60 112//60
f 111//61 116//61 114//61
f 111//62 112//62 109//62
f 115//63 110//63 113//63
f 109//58 113//58 110//58
f 112//59 115//59 113//59
f 114//60 116//60 115//60
f 111//61 110//61 116//61
f 111//62 114//62 112//62
f 115//63 116//63 110//63
o Cube
v 1.000000 -1.000000 0.523550
v 1.000000 -1.000000 2.523550
v -1.000000 -1.000000 2.523550
v -1.000000 -1.000000 0.523550
v 1.000000 1.000000 0.523551
v 0.999999 1.000000 2.523551
v -1.000000 1.000000 2.523550
v -1.000000 1.000000 0.523550
vn 0.0000 -1.0000 0.0000
vn 0.0000 1.0000 0.0000
vn 1.0000 -0.0000 0.0000
vn 0.0000 -0.0000 1.0000
vn -1.0000 -0.0000 -0.0000
vn 0.0000 0.0000 -1.0000
usemtl Material
s off
f 118//64 120//64 117//64
f 124//65 122//65 121//65
f 121//66 118//66 117//66
f 122//67 119//67 118//67
f 119//68 124//68 120//68
f 117//69 124//69 121//69
f 118//64 119//64 120//64
f 124//65 123//65 122//65
f 121//66 122//66 118//66
f 122//67 123//67 119//67
f 119//68 123//68 124//68
f 117//69 120//69 124//69
