# Blender v2.79 (sub 0) OBJ File: 'house.blend'
# www.blender.org
mtllib house.mtl
o Cube
v 3.786835 -0.245964 -3.786835
v 3.786835 -0.245964 3.786835
v -3.786836 -0.245964 3.786834
v -3.786833 -0.245964 -3.786837
v 3.786837 0.245964 -3.786833
v 3.786833 0.245964 3.786837
v -3.786837 0.245964 3.786834
v -3.786835 0.245964 -3.786835
v 3.786837 3.400279 -3.786833
v 3.786833 3.400279 3.786837
v -3.786835 3.400279 -3.786835
v -3.786837 3.400279 3.786834
v 3.307393 3.400279 -3.307390
v 3.307389 3.400279 3.307394
v -3.307391 3.400279 -3.307391
v -3.307393 3.400279 3.307390
v 3.307393 3.400279 -3.307390
v 3.307389 3.400279 3.307394
v -3.307391 3.400279 -3.307391
v -3.307393 3.400279 3.307390
v 3.307393 0.138557 -3.307390
v 3.307389 0.138557 3.307394
v -3.307391 0.138557 -3.307391
v -3.307393 0.138557 3.307390
vn 0.0000 -1.0000 0.0000
vn -0.0000 0.0000 1.0000
vn 1.0000 -0.0000 0.0000
vn -1.0000 -0.0000 -0.0000
vn 0.0000 0.0000 -1.0000
vn 0.0000 1.0000 0.0000
usemtl Material
s off
f 2//1 4//1 1//1
f 6//2 12//2 7//2
f 5//3 2//3 1//3
f 6//2 3//2 2//2
f 7//4 4//4 3//4
f 1//5 8//5 5//5
f 10//6 16//6 12//6
f 5//3 10//3 6//3
f 7//4 11//4 8//4
f 8//5 9//5 5//5
f 15//2 20//2 19//2
f 10//6 13//6 14//6
f 12//6 15//6 11//6
f 11//6 13//6 9//6
f 19//2 21//2 17//2
f 13//2 19//2 17//2
f 16//2 18//2 20//2
f 14//2 17//2 18//2
f 23//6 22//6 21//6
f 18//5 24//5 20//5
f 17//4 22//4 18//4
f 20//3 23//3 19//3
f 2//1 3//1 4//1
f 6//2 10//2 12//2
f 5//3 6//3 2//3
f 6//2 7//2 3//2
f 7//4 8//4 4//4
f 1//5 4//5 8//5
f 10//6 14//6 16//6
f 5//3 9//3 10//3
f 7//4 12//4 11//4
f 8//5 11//5 9//5
f 15//2 16//2 20//2
f 10//6 9//6 13//6
f 12//6 16//6 15//6
f 11//6 15//6 13//6
f 19//2 23//2 21//2
f 13//2 15//2 19//2
f 16//2 14//2 18//2
f 14//2 13//2 17//2
f 23//6 24//6 22//6
f 18//5 22//5 24//5
f 17//4 21//4 22//4
f 20//3 24//3 23//3
